<?xml version="1.0" encoding="UTF-8" standalone="no"?>
<svg
   version="1.1"
   id="svg27183"
   height="180"
   width="180"
   sodipodi:docname="Red_Silhouette_-_Gear_and_Tools.svg"
   inkscape:version="1.1 (ce6663b3b7, 2021-05-25)"
   xmlns:inkscape="http://www.inkscape.org/namespaces/inkscape"
   xmlns:sodipodi="http://sodipodi.sourceforge.net/DTD/sodipodi-0.dtd"
   xmlns="http://www.w3.org/2000/svg"
   xmlns:svg="http://www.w3.org/2000/svg"
   xmlns:rdf="http://www.w3.org/1999/02/22-rdf-syntax-ns#"
   xmlns:cc="http://creativecommons.org/ns#"
   xmlns:dc="http://purl.org/dc/elements/1.1/">
  <sodipodi:namedview
     id="namedview7"
     pagecolor="#505050"
     bordercolor="#eeeeee"
     borderopacity="1"
     inkscape:pageshadow="0"
     inkscape:pageopacity="0"
     inkscape:pagecheckerboard="0"
     showgrid="false"
     width="180px"
     inkscape:zoom="5.8224207"
     inkscape:cx="102.96405"
     inkscape:cy="140.40552"
     inkscape:window-width="1920"
     inkscape:window-height="1016"
     inkscape:window-x="0"
     inkscape:window-y="27"
     inkscape:window-maximized="1"
     inkscape:current-layer="layer1" />
  <defs
     id="defs27185" />
  <metadata
     id="metadata27188">
    <rdf:RDF>
      <cc:Work
         rdf:about="">
        <dc:format>image/svg+xml</dc:format>
        <dc:type
           rdf:resource="http://purl.org/dc/dcmitype/StillImage" />
      </cc:Work>
    </rdf:RDF>
  </metadata>
  <g
     transform="translate(0,-642.36218)"
     id="layer1">
    <path
       id="path3919"
       d="m 154.20823,821.16836 c 1.14535,-1.22065 1.04245,-1.3461 -9.29438,-11.3285 -8.83389,-8.53088 -10.45259,-10.37249 -10.45259,-11.89139 0,-1.5032 1.40708,-3.15691 8.60042,-10.10786 11.54283,-11.15398 9.9127,-11.27119 23.3581,1.67946 10.33816,9.9578 10.37552,9.98603 11.54302,8.74181 1.14975,-1.22535 1.11605,-1.45028 -1.83899,-12.25448 l -3.01017,-11.00621 -5.9745,-5.85315 -5.9746,-5.85316 -11.31691,-2.54882 -11.31681,-2.54881 -35.71623,-34.34045 -35.716033,-34.34041 -2.058567,-8.28215 c -3.775547,-15.18998 -3.957463,-15.58522 -11.028291,-21.2881 l -5.136045,-4.1424 -11.207992,-3.01998 c -11.108574,-2.99319 -11.218915,-3.00957 -12.439295,-1.84529 -1.222625,1.16616 -1.15566,1.24835 9.234766,11.33244 8.745184,8.4872 10.466475,10.44784 10.466475,11.92153 0,1.46324 -1.518762,3.23114 -8.913823,10.37604 -6.722753,6.49543 -9.29877,8.61229 -10.480358,8.61229 -1.190674,0 -4.070075,-2.41132 -12.000653,-10.05011 C 3.0898384,673.07015 1.7290976,672.18533 0.69562867,674.78272 c -0.20834749,0.52375 0.96119553,5.93644 2.59898443,12.02822 l 2.9781136,11.07597 6.0238053,5.74041 6.024008,5.74043 11.385818,2.57867 11.38592,2.57867 35.614457,34.46494 35.614555,34.46492 2.65197,10.9842 2.65197,10.98421 6.26829,5.57382 6.26808,5.57383 10.75863,2.87466 c 5.91723,1.58106 11.06702,2.89318 11.44421,2.91582 0.37699,0.0226 1.2067,-0.51427 1.84379,-1.19313 z M 37.416441,813.88042 c 3.664302,-1.63524 6.345666,-4.00625 26.919802,-23.80296 l 22.850034,-21.98682 -3.723816,-3.62936 -3.723918,-3.62937 -9.503749,9.04712 c -8.652392,8.23646 -9.702909,9.04712 -11.724217,9.04712 -1.652999,0 -2.552026,-0.40658 -3.51802,-1.59103 -2.722299,-3.33774 -2.059587,-4.47045 8.792448,-15.02712 l 8.703025,-8.4663 -3.918178,-3.72135 -3.918281,-3.72136 -9.837656,9.01749 c -10.606939,9.72276 -11.786384,10.34111 -14.696206,7.70456 -0.979876,-0.88779 -1.449142,-1.99789 -1.449142,-3.42817 0,-1.91811 0.874937,-2.96543 9.388703,-11.23836 l 9.388499,-9.12314 -3.761892,-3.59038 -3.761993,-3.59036 -22.555735,21.72719 C 2.7277906,777.61113 1.7505346,778.80318 0.34783841,786.83756 c -0.98120338,5.61974 0.0786024,9.81932 3.62387849,14.36864 3.0276229,3.88446 9.1382991,9.58423 12.7184861,11.86332 5.754413,3.663 13.643545,3.97165 20.726238,0.8109 z m 72.627009,-103.78576 -21.600248,-20.44487 -2.984239,2.80917 -2.984034,2.80917 21.448471,20.69262 21.44856,20.69264 3.13593,-3.05692 3.13583,-3.05692 z m 26.14992,-15.56099 15.65576,-15.55464 7.42794,-2.34166 7.42803,-2.34169 6.539,-9.17522 c 3.59653,-5.04637 6.63507,-9.45336 6.75257,-9.79328 0.1175,-0.33994 -2.88574,-3.39612 -6.67396,-6.79154 l -6.88751,-6.17346 -9.6677,6.68297 -9.66769,6.68298 -2.40615,6.64704 -2.40626,6.64702 -16.43036,15.84449 -16.43026,15.84449 4.83283,4.68855 c 2.65808,2.57874 5.15796,4.68858 5.55535,4.68858 0.39741,0 7.76767,-6.99959 16.37841,-15.55463 z"
       style="fill:#000000;fill-opacity:1;stroke-width:1.0025"
       sodipodi:nodetypes="csscssccccccccsscsccscsccccccccccccccsscscccccsccccccssccccscccsccccccccccccccsccccccccssc" />
  </g>
</svg>
