<?xml version="1.0" encoding="UTF-8" standalone="no"?>
<svg
   version="1.1"
   x="0px"
   y="0px"
   viewBox="0 0 100 100"
   enable-background="new 0 0 100 100"
   xml:space="preserve"
   id="svg4"
   sodipodi:docname="Close_(89035)_-_The_Noun_Project.svg"
   inkscape:version="1.1 (ce6663b3b7, 2021-05-25)"
   xmlns:inkscape="http://www.inkscape.org/namespaces/inkscape"
   xmlns:sodipodi="http://sodipodi.sourceforge.net/DTD/sodipodi-0.dtd"
   xmlns="http://www.w3.org/2000/svg"
   xmlns:svg="http://www.w3.org/2000/svg"><defs
     id="defs8" /><sodipodi:namedview
     id="namedview6"
     pagecolor="#505050"
     bordercolor="#eeeeee"
     borderopacity="1"
     inkscape:pageshadow="0"
     inkscape:pageopacity="0"
     inkscape:pagecheckerboard="0"
     showgrid="false"
     inkscape:zoom="8.44"
     inkscape:cx="49.940758"
     inkscape:cy="50.059242"
     inkscape:window-width="1920"
     inkscape:window-height="1016"
     inkscape:window-x="0"
     inkscape:window-y="27"
     inkscape:window-maximized="1"
     inkscape:current-layer="svg4" /><path
     d="M65.8,50l10.7-10.7c2.9-2.9,2.9-7.6,0-10.6l-4.9-4.9c-1.4-1.4-3.3-2.2-5.3-2.2c-2,0-3.9,0.8-5.3,2.2L50.3,34.6L39.6,23.9  c-1.4-1.4-3.3-2.2-5.3-2.2c-2,0-3.9,0.8-5.3,2.2l-4.9,4.9C22.8,30.1,22,32,22,34c0,2,0.8,3.9,2.2,5.3L34.9,50L24.2,60.7  C22.8,62.1,22,64,22,66c0,2,0.8,3.9,2.2,5.3l4.9,4.9c1.4,1.4,3.3,2.2,5.3,2.2c2,0,3.9-0.8,5.3-2.2l10.7-10.7L61,76.1  c1.4,1.4,3.3,2.2,5.3,2.2c2,0,3.9-0.8,5.3-2.2l4.9-4.9c2.9-2.9,2.9-7.6,0-10.6L65.8,50z M73.8,68.6L69,73.5c-1.4,1.4-3.9,1.4-5.3,0  l-12-12c-0.4-0.4-0.8-0.5-1.3-0.5c-0.5,0-0.9,0.2-1.3,0.5l-12,12c-1.4,1.4-3.9,1.4-5.3,0l-4.9-4.9c-0.7-0.7-1.1-1.7-1.1-2.7  c0-1,0.4-2,1.1-2.7l12-12c0.7-0.7,0.7-1.9,0-2.6l-12-12C26.1,36,25.7,35,25.7,34c0-1,0.4-2,1.1-2.7l4.9-4.9c1.4-1.4,3.9-1.4,5.3,0  l12,12c0.3,0.3,0.8,0.5,1.3,0.5c0.5,0,1-0.2,1.3-0.5l12-12c1.4-1.4,3.9-1.4,5.3,0l4.9,4.9c1.5,1.5,1.5,3.9,0,5.3l-12,12  c-0.3,0.3-0.5,0.8-0.5,1.3s0.2,1,0.5,1.3l12,12C75.3,64.8,75.3,67.2,73.8,68.6z"
     id="path2"
     style="fill:#ffffff" /></svg>
